<?xml version="1.0" encoding="UTF-8" standalone="no"?><svg width="171" height="121" viewBox="0 0 171 121" xmlns="http://www.w3.org/2000/svg"><g fill-rule="evenodd"><path d="M63 31l-1.6 5.19h3.24L63 31zm-3.53 11h-4.34l6.27-16.39h3.26l6.27 16.32h-4.41l-.8-2.36h-5.4L59.47 42zM75 29.6v1.68a3.16 3.16 0 013.1-1.86v3.35H78c-2.29 0-2.78.78-2.78 3.05v6.11h-3.66V29.6H75zm4.17 2.71V29.6h1.56v-3.99h3.68v3.99h1.63v2.71h-1.63v9.62h-3.68v-9.62zM90 38.26v.12a1.21 1.21 0 001.33 1.17c.78 0 1.24-.39 1.24-1.08 0-1-1-1-2.53-1.45-2.14-.67-3.17-1.81-3.17-3.67 0-2.41 1.77-4.11 4.71-4.11 2.55 0 4.18 1.45 4.32 3.79h-3.26c-.14-.8-.44-1.15-1.08-1.15a1 1 0 00-1.12 1c0 .85.76 1.06 2 1.4C95 35 96.25 35.94 96.25 38c0 2.48-2 4.27-4.93 4.27-2.75 0-4.45-1.49-4.71-4l3.39-.01zM63 62.07a8.07 8.07 0 01-6.06-2.59 8.5 8.5 0 01-2.32-6.06 8.08 8.08 0 012.48-5.9 8.23 8.23 0 015.9-2.41 8.36 8.36 0 018.13 6.52h-4.31A4.21 4.21 0 0063 49.17a4.26 4.26 0 00-4.34 4.27A4.47 4.47 0 0063 58a4.3 4.3 0 003.76-2.34h4.34a8.18 8.18 0 01-8.1 6.41m18.56-7.78a2.85 2.85 0 00-2.92-2 2.67 2.67 0 00-2.85 2h5.77zm3.08 3.88a6.21 6.21 0 01-6 3.88 6.09 6.09 0 01-4.66-2 6.5 6.5 0 01-1.81-4.57A6.32 6.32 0 0174.06 51a6.44 6.44 0 014.54-1.93c3.92 0 6.61 2.82 6.61 7.41v.39h-9.3a2.58 2.58 0 002.85 2 2.69 2.69 0 001.88-.69l4-.01zm1.72 3.58V49.42h3.44v1.65a3.83 3.83 0 013.54-1.88c2.55 0 4.2 1.61 4.2 4.43v8.13h-3.68v-6.68c0-1.72-.37-2.5-1.77-2.5s-2.18.85-2.18 2.5v6.68h-3.55zm12.35-9.62v-2.71h1.56v-3.99h3.67v3.99h1.64v2.71h-1.64v9.62h-3.67v-9.62zm11.73-2.71v1.68a3.16 3.16 0 013.1-1.86v3.35h-.09c-2.29 0-2.78.78-2.78 3.05v6.11H107V49.42h3.44zm13.02 4.87a2.85 2.85 0 00-2.92-2 2.67 2.67 0 00-2.85 2h5.77zm3.08 3.88a6.21 6.21 0 01-6 3.88 6.09 6.09 0 01-4.66-2 6.5 6.5 0 01-1.81-4.57 6.32 6.32 0 011.88-4.48 6.44 6.44 0 014.54-1.93c3.93 0 6.61 2.82 6.61 7.41v.39h-9.3a2.58 2.58 0 002.85 2 2.69 2.69 0 001.88-.69l4.01-.01zm-71.22 23.4V65.25h5.46l3.12 9.98 3.15-9.98h5.44v16.32h-3.81V70.78L65.3 81.57h-2.82L59.1 70.78v10.79zm28.25-7.46a2.85 2.85 0 00-2.92-2 2.66 2.66 0 00-2.85 2h5.77zM86.64 78a6.21 6.21 0 01-6 3.88 6.09 6.09 0 01-4.66-2 6.5 6.5 0 01-1.81-4.57 6.32 6.32 0 011.88-4.52 6.44 6.44 0 014.54-1.93c3.93 0 6.61 2.82 6.61 7.41v.39h-9.3a2.57 2.57 0 002.85 2 2.69 2.69 0 001.9-.66h3.99zm2.11-12.75h3.6v16.32h-3.6zm12.12 13.1a3 3 0 003.19-3 3.07 3.07 0 00-3.06-3.08 3 3 0 00-3 3.1 2.91 2.91 0 002.87 3v-.02zM98 81.57h-3.49V65.25h3.65v5.37a4.09 4.09 0 013.44-1.56 5.73 5.73 0 014.11 1.7 6.42 6.42 0 01-.18 9.43 5.59 5.59 0 01-3.86 1.45A4.77 4.77 0 0198 80.19v1.38zm17.18-3.12a3 3 0 10.16-5.998 3 3 0 00-.16 5.998m-4.61-7.6a6.51 6.51 0 0111.13 4.48 6.28 6.28 0 01-1.86 4.67 6.39 6.39 0 01-4.68 1.93 6.09 6.09 0 01-4.66-2 6.45 6.45 0 01-1.81-4.55 6.32 6.32 0 011.88-4.52m23.89-1.62v12.33h-3.37v-1.65a3.82 3.82 0 01-3.53 1.88c-2.55 0-4.22-1.61-4.22-4.43v-8.13H127v6.68c0 1.72.37 2.5 1.77 2.5s2.16-.85 2.16-2.5v-6.68h3.53zm5.73 0v1.68a3.16 3.16 0 013.1-1.86v3.35h-.09c-2.29 0-2.78.78-2.78 3.05v6.11h-3.67V69.24h3.44zm4.45 12.33V69.24h3.44v1.65a3.83 3.83 0 013.49-1.89c2.55 0 4.2 1.61 4.2 4.43v8.13h-3.63v-6.67c0-1.72-.37-2.5-1.77-2.5s-2.18.85-2.18 2.5v6.68h-3.55zm22.15-7.46a2.85 2.85 0 00-2.92-2 2.66 2.66 0 00-2.85 2h5.77zm3.08 3.89a6.21 6.21 0 01-6 3.88 6.09 6.09 0 01-4.66-2 6.49 6.49 0 01-1.81-4.57 6.32 6.32 0 011.88-4.52 6.44 6.44 0 014.54-1.93c3.93 0 6.61 2.82 6.61 7.41v.39h-9.3a2.57 2.57 0 002.85 2 2.69 2.69 0 001.88-.69l4.01.03zM15.89 120.74L.04 108.82 0 102.78l24.71-9.06.25.69-24.22 8.88.03 5.16 15.3 11.51 35.85-7.09.06.01 31.1 3.98-4.16-10.78-28.17-11.27.27-.68 28.46 11.39 4.73 12.22-32.26-4.13z"/><path d="M39.538 95.084l.61-.402L52.24 113.05l-.61.402z"/><path d="M15.706 120.088l23.878-25.454.532.5-23.877 25.453zM.2 108.313l24.448-14.55.374.626L.574 108.94z"/><path d="M39.53 95.06l-6.61-11.73-7.78 10.95-.6-.43 8.45-11.89 7.17 12.74z"/><path d="M40.21 94.94l-.73-.13 2.4-13.63.72.13zm-7.588-12.448l7.037-14.813.66.313-7.038 14.813z"/><path d="M34.597 50.449l.702-.203 5.047 17.486-.702.203zm5.098 44.097l7.227-3.066.285.672-7.226 3.066z"/><path d="M24.823 94.42l.039-.73 15.008.814-.04.729z"/><path d="M16.33 120.47l-.7-.24 8.86-26.28.69.23z"/><path d="M83.44 117.6L46.78 92.06l-.04-.1-4.86-10.65-2.24-13.41-2.98-59.03-1.91 58.91-3.36 14.03-6.23 12.42-.65-.33 6.2-12.34 3.32-13.88L36.22.01l.73-.01 3.42 67.82 2.23 13.32 4.76 10.43L83.86 117z"/><path d="M39.678 95.219l.333-.65 43.794 22.42-.332.65z"/></g></svg>