<?xml version="1.0" encoding="UTF-8"?><svg id="Layer_1" xmlns="http://www.w3.org/2000/svg" viewBox="0 0 584.82 223.13"><defs><style>.cls-1{stroke-width:0px;}</style></defs><path class="cls-1" d="m87.01,205.07h8.72c3.24,0,5.05,2.02,5.05,4.52,0,2.23-1.44,3.72-3.08,4.07,1.89.29,3.43,2.18,3.43,4.36,0,2.74-1.84,4.79-5.16,4.79h-8.96v-17.74Zm8.08,7.34c1.6,0,2.5-.96,2.5-2.29s-.9-2.32-2.5-2.32h-4.97v4.6h4.97Zm.13,7.66c1.7,0,2.71-.93,2.71-2.47,0-1.33-.93-2.44-2.71-2.44h-5.11v4.92h5.11Z"/><polygon class="cls-1" points="121.64 205.07 116.8 212.68 111.9 205.07 108.34 205.07 115.23 215.45 115.23 222.81 118.34 222.81 118.34 215.45 125.2 205.07 121.64 205.07"/><polygon class="cls-1" points="146.34 205.07 146.34 207.81 151.72 207.81 151.72 222.81 154.83 222.81 154.83 207.81 160.19 207.81 160.19 205.07 146.34 205.07"/><polygon class="cls-1" points="169.58 205.07 169.58 222.81 181.74 222.81 181.74 220.07 172.7 220.07 172.7 215.15 181.55 215.15 181.55 212.42 172.7 212.42 172.7 207.81 181.74 207.81 181.74 205.07 169.58 205.07"/><polygon class="cls-1" points="203.12 205.07 198.57 211.59 194 205.07 190.27 205.07 196.52 213.72 189.88 222.81 193.6 222.81 198.57 215.87 203.55 222.81 207.27 222.81 200.64 213.69 206.87 205.07 203.12 205.07"/><polygon class="cls-1" points="214.88 205.07 214.88 207.81 220.24 207.81 220.24 222.81 223.36 222.81 223.36 207.81 228.73 207.81 228.73 205.07 214.88 205.07"/><path class="cls-1" d="m244.31,216.19h-3.09v6.62h-3.11v-17.74h7.79c3.51,0,5.8,2.29,5.8,5.56s-2.07,4.87-4.2,5.21l4.34,6.97h-3.59l-3.93-6.62Zm1.17-8.38h-4.26v5.64h4.26c1.76,0,3.03-1.12,3.03-2.82s-1.27-2.82-3.03-2.82"/><path class="cls-1" d="m269.84,204.78c5.32,0,9.07,3.88,9.07,9.18s-3.75,9.18-9.07,9.18-9.07-3.88-9.07-9.18,3.75-9.18,9.07-9.18m0,2.77c-3.59,0-5.88,2.74-5.88,6.41s2.29,6.41,5.88,6.41,5.88-2.77,5.88-6.41-2.32-6.41-5.88-6.41"/><polygon class="cls-1" points="300.93 205.07 300.93 217.65 291.86 205.07 288.67 205.07 288.67 222.81 291.78 222.81 291.78 209.89 301.03 222.81 304.04 222.81 304.04 205.07 300.93 205.07"/><path class="cls-1" d="m335.21,207.71l3.32,8.96h-6.65l3.33-8.96Zm-1.94-2.63l-6.97,17.74h3.4l1.3-3.41h8.41l1.3,3.41h3.4l-6.96-17.74h-3.88Z"/><polygon class="cls-1" points="363.9 205.07 358.53 219.44 353.16 205.07 349.62 205.07 356.59 222.81 360.47 222.81 367.44 205.07 363.9 205.07"/><rect class="cls-1" x="376.14" y="205.07" width="3.11" height="17.74"/><path class="cls-1" d="m396.82,207.71l3.32,8.96h-6.65l3.32-8.96Zm-1.94-2.63l-6.97,17.74h3.4l1.3-3.41h8.4l1.3,3.41h3.41l-6.97-17.74h-3.88Z"/><polygon class="cls-1" points="411.56 205.07 411.56 207.81 416.93 207.81 416.93 222.81 420.04 222.81 420.04 207.81 425.41 207.81 425.41 205.07 411.56 205.07"/><rect class="cls-1" x="434.8" y="205.07" width="3.11" height="17.74"/><path class="cls-1" d="m456.71,204.78c5.32,0,9.07,3.88,9.07,9.18s-3.75,9.18-9.07,9.18-9.07-3.88-9.07-9.18,3.75-9.18,9.07-9.18m0,2.77c-3.59,0-5.88,2.74-5.88,6.41s2.29,6.41,5.88,6.41,5.88-2.77,5.88-6.41-2.31-6.41-5.88-6.41"/><polygon class="cls-1" points="487.8 205.07 487.8 217.65 478.73 205.07 475.54 205.07 475.54 222.81 478.65 222.81 478.65 209.89 487.91 222.81 490.91 222.81 490.91 205.07 487.8 205.07"/><path class="cls-1" d="m174.03,9c0,2.01-1.69,3.7-3.73,3.7s-3.76-1.68-3.76-3.75,1.68-3.75,3.75-3.75,3.74,1.68,3.74,3.79m-6.79-.05c0,1.71,1.37,3.11,3.06,3.11s3.03-1.4,3.03-3.11-1.35-3.1-2.99-3.1c-1.74,0-3.1,1.36-3.1,3.1m2.4,2.18h-1.14v-4.36h1.96c.58,0,.91.08,1.21.29.31.22.5.63.5,1.03,0,.51-.26.9-.77,1.12l.84,1.92h-1.25l-.7-1.73h-.64v1.73Zm0-2.51h.58c.36,0,.44-.01.56-.09.13-.09.22-.28.22-.45,0-.15-.07-.31-.18-.4-.12-.1-.19-.12-.62-.12h-.56v1.06Z"/><path class="cls-1" d="m148.6,0H35.37v36.21h63.3c7.84,0,17.91-2.97,25.74-11.19L148.6,0Z"/><path class="cls-1" d="m35.43,54.97h58.85l-23.47,23.93c-6.66,6.72-15.25,12.67-27.93,12.67h-7.44v-36.61Z"/><path class="cls-1" d="m107.61,126.88v-58.59l-24.59,25.03c-4.06,4.47-10.4,9.7-10.4,21.67v11.89h35Z"/><path class="cls-1" d="m126.48,127.02V62.09c0-6.73,0-12.69,7.05-20.12l27.82-28.78v113.83h-34.87Z"/><path class="cls-1" d="m150.16,138.14c-6.22,0-10.95,2.65-11.25,9.12h5.94c.2-2.33,2.19-4.27,5.11-4.27,2.64,0,4.85.45,4.78,3.76-.05,2.33-2.84,2.83-7.56,3.55-4.02.51-9.25,2.78-10.73,6.92v-7.18c0-6.85-1.38-11.38-9.44-11.43-2.6,0-5.51,1.22-6.99,2.58h-.2l-.89-1.81h-6.53v17.21c-.78-3.89-4.41-5.25-8.35-6.15-4.34-1.04-9.13-1.35-9.19-4.14-.07-2.85,3.12-2.98,4.79-2.98,2.71,0,4.84,1.44,5.55,4.15h5.94c-.57-6.8-5.56-9.38-11.25-9.38-6,0-11.63,2.97-11.49,8.99,0,4.92,3.79,6.92,8.21,7.89,5.48,1.17,8.59,2,8.59,4.27,0,2.72-2.78,3.89-4.98,3.89-2.96,0-5.81-1.95-7.03-4.99h-5.56c-.07-5.04-4.08-6.65-8.53-7.69-4.35-1.04-9.13-1.35-9.18-4.14-.07-2.85,3.11-2.98,4.78-2.98,2.78,0,4.85,1.44,5.56,4.15h5.95c-.58-6.8-5.56-9.38-11.27-9.38-6,0-11.63,2.97-11.5,8.99.06,4.92,3.82,6.92,8.22,7.89,5.5,1.17,8.68,2,8.68,4.27,0,2.72-2.86,3.89-5.05,3.89-2.98,0-5.84-1.95-7.06-4.99h-5.82v-.05h-6.72c-.84,1.93-3.23,4.07-6.34,4.07-4.2,0-6.59-2.2-6.79-7.05h19.46c.53-8.54-3.49-16.48-12.93-16.48-8.4,0-14.16,6.33-14.16,14.67,0,.32,0,.64.06.98h-6.72c-1.36,3.67-3.68,7.29-10.16,7.29-7.56-.07-10.41-7.06-10.41-13.45s2.85-13.78,10.41-13.78c6.86,0,8.47,3.38,9.37,6.34h7.3c-.83-7.81-7.56-12.22-16.68-12.22-10.48,0-18.1,8.27-18.1,19.66s7.1,19.98,18.1,19.98c8.93,0,15-5.04,17.01-12.02,1.11,7.12,6.2,11.83,13.97,11.83,6.02,0,10.67-2.52,13.01-8.86,2.06,6.01,6.72,8.86,13.2,8.86,5.69,0,11.24-1.95,12.22-7.76,2.2,5.24,6.66,7.76,12.67,7.76s11.27-1.95,12.23-7.7v6.99h6.92v-14.61c0-5.63,1.75-7.95,5.29-7.95s4.59,2.26,4.59,6.85v15.71h7.26v-5.44c1.1,3.24,4.52,5.9,8.78,5.9,3.36,0,7.37-.64,9.83-3.17.07.9.26,1.8.52,2.71l5.95-.06v-20.64c0-6.65-5.81-8.34-11.37-8.34m-101.22,6.21c3.76,0,5.37,2.07,6.08,5.95h-12.34c.06-2.2,1.49-5.95,6.26-5.95m105.6,12.03c0,1.62-.26,6.4-6.21,6.4-2.44,0-5.04-.71-5.04-3.56s2.27-4.08,3.89-4.65c1.42-.72,5.89-1.37,7.36-1.37v3.17Z"/><path class="cls-1" d="m253.78,116.6c-.98.55-2.32.84-4.03.84v1.59h12.85v-57.01h-1.93l-11.49,4.93.59,1.6c1.31-.47,2.25-.71,2.85-.71.73,0,1.3.19,1.74.58.44.38.76,1.1.97,2.15.21,1.04.31,4.64.31,9.22v30.1c0,2.53-.17,4.21-.5,5.04-.33.82-.78,1.38-1.34,1.68m46.96-41.15c.65-6.61-1.52-12.68-6.79-18.23-5.24-5.56-11.98-9.1-21.86-10.2-9.56-1.06-18.48,1-25.06,5.77-6.59,4.76-10.3,10.96-11.15,18.58-.63,5.71.42,10.57,3.18,14.61,2.76,4.03,5.84,6.24,9.24,6.63,1.68.19,3.15-.13,4.26-1.1,1.06-.91,1.32-2.21,1.41-3.38.07-.99-.21-1.79-1.37-2.73-1.05-.85-3.01-.88-5.64-1.4-2.61-.53-5.05-2.44-6.27-4.07-1.18-1.63-1.89-4.59-1.02-10.01.66-4.19,4.91-9.49,8.48-11.7,4.73-2.94,10.35-5.6,18.83-4.92,7.8.63,13.9,3.06,18.14,7.81,4.8,5.37,5.32,11.96,4.67,17.76-.46,4.14-2.34,7.69-5.64,10.66-1.97,1.8-5.55,3.3-8.87,3.5-.46,0-.91,0-1.43,0-.04,0-.09.41-.15.82l-.14.75h0v.02h0c3.17,1.33,5.52,2.81,7.02,4.44,1.51,1.64,2.37,3.49,2.62,5.59.32,2.64-.23,4.91-1.65,6.79-1.4,1.85-3.13,2.88-5.18,3.12-7.23.57-6.65-5.36-5.75-6.84,1.29-2.12,3.02-1.68,2.25-4.06-.94-2.88-3.42-1.96-3.42-1.96-.68.07-4.16,1.04-3.43,7.1.7,5.86,5.02,9.37,9.48,10.83h0c.22.09.43.14.64.2.13.04.27.08.4.11,1.83.48,3.7.64,5.63.46,3.59-.34,6.42-1.81,8.45-4.4,2.04-2.58,2.82-5.81,2.35-9.69-.29-2.45-1.11-4.51-2.46-6.19-1.47-1.87-3.7-3.57-6.61-5.12,2.62-.38,5.15-1.23,7.69-3.08,5.75-4.22,8.45-9.77,9.1-16.46m3.32,16.18c.82-6.97,4.16-11.58,9.96-11.58,4.98,0,7.69,3.44,8.32,11.58h-18.28Zm-.18,3.35h26.97c-.37-11.95-8.23-18.09-15.56-18.09-9.6,0-18.19,8.59-18.19,22.53,0,11.04,7.06,20.54,18.37,20.54,7.42,0,12.03-4.8,15.19-12.93l-1.81-.64c-3.35,5.43-6.24,7.06-10.31,7.06-8.6,0-14.66-7.78-14.66-17.55v-.91Zm35.1-3.35c.82-6.97,4.17-11.58,9.96-11.58,4.98,0,7.68,3.44,8.32,11.58h-18.28Zm-.18,3.35h26.96c-.36-11.95-8.23-18.09-15.56-18.09-9.59,0-18.19,8.59-18.19,22.53,0,11.04,7.05,20.54,18.37,20.54,7.42,0,12.03-4.8,15.19-12.93l-1.8-.64c-3.35,5.43-6.24,7.06-10.32,7.06-8.6,0-14.66-7.78-14.66-17.55v-.91Zm46.69-18.09c-10.68,0-18.55,10.04-18.55,22.53s7.96,20.54,17.92,20.54c7.05,0,12.03-4.89,15.38-13.03l-1.72-.55c-3.61,5.52-6.87,6.79-10.77,6.79-9.04,0-13.93-8.14-13.93-17.82s4.25-15.2,10.13-15.2c4.43,0,4.89,3.17,6.15,6.78.82,2.44,2.81,3.71,4.52,3.71,2.35,0,4.43-2.35,4.43-5.15s-3.16-8.59-13.57-8.59m55,40.44c-3.44-.27-5.79-1.63-5.79-6.6v-20.9c0-8.5-4.62-12.93-10.41-12.93-4.34,0-9.31,1.72-13.66,6.78v-27.05l-1.17-.55-12.76,4.35v1.54c4.7-.19,7.05,1.45,7.05,7.6v41.17c0,4.97-2.35,6.33-6.25,6.6v1.72h19.36v-1.63c-3.34-.27-6.24-2.08-6.24-7.24v-22.71c2.44-3.16,6.33-4.88,9.68-4.88,4.43,0,7.5,2.71,7.5,9.59v18.01c0,4.98-2.43,6.97-5.88,7.24v1.63h18.55v-1.72Zm6.25-21.99c0-9.32,4.25-15.2,10.13-15.2,4.43,0,4.88,3.17,6.15,6.78.82,2.44,2.81,3.71,4.53,3.71,2.35,0,4.43-2.35,4.43-5.15s-3.16-8.59-13.57-8.59-18.55,10.04-18.55,22.53,7.96,20.54,17.92,20.54c7.06,0,12.03-4.89,15.39-13.03l-1.73-.55c-3.62,5.52-6.87,6.79-10.76,6.79-9.05,0-13.93-8.14-13.93-17.82m56.09-14.57c-.54-3.26-3.89-4.53-6.79-3.89-2.17.45-4.34,2.08-6.24,4.43-1.18,1.36-2.17,2.98-2.98,4.79v-7.87l-1.08-.45-11.77,4.16v1.54c4.35,0,6.61,2.26,6.61,7.96v19.28c0,4.97-2.54,6.33-6.42,6.6v1.72h19.72v-1.63c-1.54-.09-2.81-.45-3.9-1.27-1.63-1.08-2.54-2.98-2.54-5.97v-21.17c1.18-2.8,2.63-4.52,4.35-4.88,2.81-.63,4.08,2.89,7.69,2.26,2.54-.54,3.8-3.26,3.35-5.61m35.01,34.29l-1.44-1.17c-1.09,1.45-1.63,1.81-2.62,1.81-1.72,0-2.44-1.36-2.44-5.88v-19.27c0-9.14-3.98-13.66-13.12-13.66-7.59,0-13.84,3.25-13.84,8.77,0,2.63,1.72,4.53,4.07,4.53,2.63,0,4.17-1.99,4.17-4.88-.28-2.44-1.73-5.61,4.33-5.61,4.62,0,7.51,4.07,7.51,10.04v2.26c-19.54,6.51-22.88,13.12-22.88,18.64,0,4.79,3.16,9.32,9.95,9.32,4.25,0,10.77-2.35,10.77-9.86,0-5.33-2.72-6.87-4.43-6.87-1.36,0-2.26.82-2.63,1.99-.28.99-.18,2.44,1.63,3.8,1.17.9,2.44,1.72,2.44,3.08,0,1.98-2.17,3.07-4.16,3.07-3.62,0-5.79-1.9-5.79-6.15,0-4.89,2.62-9.32,15.1-14.11v16.83c0,5.16,2.36,7.87,6.7,7.87,3.16,0,4.62-1.36,6.69-4.52m20.81-33.29v-3.17h-7.69v-10.04c0-5.07,1.72-7.6,4.62-7.6s3.25,2.08,4.16,4.52c.72,2.17,2.44,3.35,3.98,3.35,2.26,0,4.08-1.81,4.08-4.07s-2.44-6.97-10.77-6.97c-6.51,0-12.94,5.34-12.94,17.82v2.99h-6.52v3.17h6.52v29.13c0,4.62-2.81,6.16-6.06,6.43v1.72h19.63v-1.72c-3.71-.18-6.7-2.36-6.7-7.06v-28.5h7.69Zm22.62-3.17h-8.87v-12.13h-2.09c-1.26,6.33-5.24,12.13-11.67,12.13l-2.7,3.17h9.58v28.95c0,5.33,2.81,9.22,8.14,9.22,3.53,0,5.96-1.9,9.13-6.15l-1.53-1.54c-1.45,2.08-3.09,2.62-5.16,2.62-2.36,0-3.71-1.36-3.71-5.97v-27.14h8.87v-3.17Zm.54-9.6c0,.17-.1.37-.23.45-.12.08-.2.09-.56.09h-.59v-1.06h.56c.43,0,.51.01.62.11.11.1.19.25.19.4m1.22,3.05l-.84-1.92c.51-.22.77-.61.77-1.12,0-.4-.19-.81-.49-1.02-.29-.22-.62-.3-1.21-.3h-1.95v4.36h1.13v-1.73h.64l.7,1.73h1.24Zm1.11-2.18c0,1.71-1.35,3.1-3.03,3.1s-3.06-1.39-3.06-3.1,1.36-3.1,3.1-3.1c1.63,0,2.99,1.4,2.99,3.1m.7.05c0-2.11-1.66-3.79-3.74-3.79s-3.74,1.68-3.74,3.74,1.67,3.74,3.75,3.74,3.73-1.69,3.73-3.7"/><rect class="cls-1" x="198.12" y="0" width=".89" height="167.16"/></svg>